<svg width="84" height="84" viewBox="0 0 84 84" fill="none" xmlns="http://www.w3.org/2000/svg">
<g clip-path="url(#clip0_410_8304)">
<path d="M1.13299 79.4449H0.439453V74.6239H1.13299V79.4449Z" fill="white"/>
<path d="M6.50753 79.4449H5.91598L2.73385 75.7285V79.4449H2.09131V74.6239H2.63186L5.86498 78.3609V74.6239H6.50753V79.4449Z" fill="white"/>
<path d="M11.657 79.1147C11.0846 79.3804 10.4611 79.5143 9.83136 79.507C9.50557 79.5225 9.1801 79.4705 8.87485 79.3542C8.5696 79.2379 8.29102 79.0598 8.05614 78.8308C7.82126 78.6018 7.63504 78.3266 7.50887 78.0222C7.3827 77.7178 7.31924 77.3905 7.32238 77.0604C7.3222 76.7253 7.38864 76.3935 7.51775 76.0849C7.64685 75.7763 7.83599 75.4971 8.0739 75.264C8.3118 75.0309 8.59361 74.8487 8.90255 74.7281C9.21148 74.6075 9.54123 74.5511 9.87216 74.5622C10.4628 74.5629 11.0455 74.7006 11.5754 74.9648V75.6668C11.0526 75.3657 10.4634 75.2024 9.86196 75.1919C9.62355 75.198 9.38866 75.2516 9.17071 75.3495C8.95276 75.4475 8.75601 75.588 8.59169 75.7629C8.42737 75.9379 8.29871 76.1439 8.21304 76.3691C8.12737 76.5944 8.08638 76.8346 8.09241 77.0759C8.09844 77.3172 8.15136 77.5549 8.24817 77.7756C8.34497 77.9962 8.48375 78.1953 8.6566 78.3616C8.82944 78.5279 9.03295 78.6582 9.25552 78.7449C9.47808 78.8316 9.71534 78.8731 9.95375 78.867C10.3011 78.8579 10.645 78.7952 10.9737 78.6812V77.6488H10.0659V77.0294H11.6672L11.657 79.1147Z" fill="white"/>
<path d="M15.2702 75.2433H13.2303V76.6989H15.1682V77.3183H13.2303V78.8255H15.2702V79.4449H12.5674V74.6239H15.2702V75.2433Z" fill="white"/>
<path d="M20.3982 79.4449H19.8066L16.6245 75.7285V79.4449H15.9819V74.6239H16.5021L19.725 78.3609V74.6239H20.3778L20.3982 79.4449Z" fill="white"/>
<path d="M22.0506 79.4449H21.3774V74.6239H22.0506V79.4449Z" fill="white"/>
<path d="M25.7321 75.2433H23.6922V76.6989H25.6811V77.3183H23.7126V78.8255H25.7525V79.4449H23.0293V74.6239H25.7321V75.2433Z" fill="white"/>
<path d="M27.6515 74.6239C28.6102 74.6239 29.212 75.1401 29.212 75.9763C29.2207 76.2312 29.1493 76.4824 29.0083 76.6939C28.8672 76.9053 28.6636 77.066 28.4267 77.1531C28.8579 77.5211 29.2058 77.9789 29.4466 78.4951C29.6403 78.8255 29.7627 78.9803 30.0891 79.4449H29.2732L28.651 78.4126C28.0187 77.3802 27.7331 77.308 27.3863 77.308H27.1008V79.3726H26.4072V74.6239H27.6515ZM27.1416 76.6886H27.5801C28.3145 76.6886 28.5184 76.3066 28.5082 75.904C28.498 75.5014 28.2329 75.171 27.5801 75.171H27.1416V76.6886Z" fill="white"/>
<path d="M31.7096 73.2609L30.9242 74.2932H30.5469L31.016 73.2609H31.7096ZM31.271 79.4549H30.5877V74.6235H31.271V79.4549Z" fill="white"/>
<path d="M36.3816 79.4447H35.6779L35.0455 78.0201H33.0057L32.3937 79.4447H31.7002L33.74 74.5928H34.2194L36.3816 79.4447ZM33.3219 77.3801H34.7599L33.995 75.6354L33.3219 77.3801Z" fill="white"/>
<path d="M42.743 75.6979C42.2531 75.3773 41.6843 75.202 41.101 75.192C40.8549 75.1808 40.6092 75.2204 40.3787 75.3084C40.1483 75.3963 39.9379 75.5309 39.7605 75.7037C39.583 75.8766 39.4421 76.0842 39.3465 76.3139C39.2508 76.5436 39.2023 76.7906 39.2039 77.0399C39.1987 77.292 39.246 77.5424 39.3426 77.7748C39.4393 78.0072 39.5833 78.2163 39.7651 78.3887C39.9469 78.5611 40.1626 78.6927 40.398 78.7752C40.6334 78.8576 40.8834 78.889 41.1316 78.8672C41.7243 78.8485 42.3001 78.6626 42.794 78.3303V79.0839C42.2617 79.3739 41.6645 79.5196 41.0602 79.5072C40.7342 79.5253 40.4079 79.4769 40.1007 79.3649C39.7936 79.2529 39.5118 79.0796 39.272 78.8552C39.0323 78.6309 38.8396 78.3601 38.7052 78.0589C38.5709 77.7577 38.4977 77.4322 38.49 77.1019C38.4853 76.7582 38.5504 76.4173 38.6813 76.1002C38.8122 75.7831 39.0061 75.4966 39.2509 75.2585C39.4957 75.0204 39.7863 74.8357 40.1045 74.716C40.4228 74.5962 40.7619 74.5439 41.101 74.5623C41.6693 74.5758 42.2286 74.7095 42.743 74.9546V75.6979Z" fill="white"/>
<path d="M44.2424 79.4449H43.5591V74.6239H44.2424V79.4449Z" fill="white"/>
<path d="M46.8848 79.4862H46.7522L44.7124 74.6239H45.3957L46.8236 78.01L48.2515 74.6239H48.9246L46.8848 79.4862Z" fill="white"/>
<path d="M50.0461 79.4449H49.3628V74.6239H50.0461V79.4449Z" fill="white"/>
<path d="M51.698 78.8255H53.85V79.4449H51.0146V74.6239H51.698V78.8255Z" fill="white"/>
<path d="M56.8511 79.4862H56.7185L54.6787 74.6239H55.3723L56.8001 78.01L58.228 74.6239H58.9011L56.8511 79.4862Z" fill="white"/>
<path d="M60.0101 79.4449H59.3369V74.6239H60.0203L60.0101 79.4449Z" fill="white"/>
<path d="M65.0402 75.6977C64.5576 75.3777 63.9954 75.2024 63.4186 75.1919C63.1725 75.1807 62.9268 75.2202 62.6963 75.3082C62.4659 75.3962 62.2555 75.5307 62.0781 75.7035C61.9006 75.8764 61.7597 76.084 61.6641 76.3137C61.5684 76.5434 61.5199 76.7905 61.5215 77.0397C61.5182 77.2886 61.5657 77.5354 61.6611 77.7648C61.7565 77.9942 61.8977 78.2011 62.0758 78.3727C62.2539 78.5442 62.4651 78.6767 62.6962 78.7618C62.9272 78.8468 63.1732 78.8826 63.4186 78.867C64.0116 78.85 64.5878 78.6639 65.081 78.3302V79.0838C64.5519 79.3724 63.9583 79.5181 63.3574 79.507C63.0305 79.5265 62.7032 79.4792 62.3948 79.3678C62.0865 79.2565 61.8034 79.0834 61.5626 78.8589C61.3218 78.6344 61.1281 78.3631 60.9931 78.0612C60.8581 77.7593 60.7846 77.433 60.777 77.1017C60.7735 76.7557 60.8405 76.4127 60.9738 76.0942C61.1071 75.7756 61.3038 75.4882 61.5516 75.2499C61.7995 75.0116 62.0931 74.8276 62.4143 74.7093C62.7355 74.5909 63.0774 74.5409 63.4186 74.5621C63.9835 74.5771 64.5392 74.7107 65.0504 74.9544L65.0402 75.6977Z" fill="white"/>
<path d="M68.5184 75.2433H66.4785V76.6989H68.5184V77.3183H66.5295V78.8255H68.5694V79.4449H65.8462V74.6239H68.5184V75.2433Z" fill="white"/>
<path d="M73.6701 79.4449H73.0785L69.8964 75.7285V79.4449H69.2437V74.6239H69.7944L73.0173 78.3609V74.6239H73.6701V79.4449Z" fill="white"/>
<path d="M78.2057 75.2433H76.5636V79.4449H75.8803V75.2433H74.228V74.6239H78.2057V75.2433Z" fill="white"/>
<path d="M81.4816 75.2433H79.4418V76.6989H81.3898V77.3183H79.4622V78.8255H81.502V79.4449H78.7788V74.6239H81.4816V75.2433Z" fill="white"/>
<path d="M15.7273 55.8563C13.3239 53.5826 11.4157 50.8262 10.1249 47.7634C8.83409 44.7005 8.18901 41.3988 8.23092 38.0692C8.19247 31.931 10.4141 25.9983 14.4626 21.428C16.9176 18.5223 19.9851 16.2108 23.4394 14.6636C26.8936 13.1165 30.6466 12.373 34.4223 12.488C38.9602 12.5001 43.4144 13.7251 47.3344 16.0392L47.1202 16.4212L47.3344 16.0392L47.5587 16.1631V25.9806L46.8448 25.3818C42.6428 21.9339 38.3489 20.2202 33.9123 20.2202C31.6207 20.1689 29.3435 20.5993 27.2246 21.4842C25.1057 22.3691 23.1911 23.6892 21.602 25.3612C19.949 27.0023 18.6442 28.9675 17.7673 31.1366C16.8905 33.3057 16.4601 35.6331 16.5024 37.9763C16.4661 40.285 16.9002 42.5765 17.7776 44.7079C18.6549 46.8392 19.9568 48.7647 21.602 50.3643C23.2208 52.0138 25.1541 53.3128 27.2844 54.1824C29.4147 55.0519 31.6975 55.474 33.9939 55.4227C36.1996 55.4886 38.3938 55.0768 40.4296 54.2149C41.4971 53.7641 42.5214 53.2146 43.4893 52.5735C44.6622 51.7964 45.7925 50.9556 46.8754 50.0546L47.5893 49.4662V59.4075L47.365 59.5417C43.2534 61.892 38.6138 63.1327 33.8919 63.1446V63.1446C30.5402 63.2024 27.2104 62.5862 24.0958 61.3315C20.9811 60.0769 18.1436 58.2088 15.7477 55.8357" fill="white"/>
<path d="M8.76959 12.6947H0.416504V62.4325H8.76959V12.6947Z" fill="white"/>
<path d="M9.52598 5.602C9.52598 6.88061 9.02417 8.10684 8.13094 9.01095C7.2377 9.91507 6.02622 10.423 4.76299 10.423C3.49977 10.423 2.28828 9.91507 1.39505 9.01095C0.501814 8.10684 0 6.88061 0 5.602C0 4.32339 0.501814 3.09715 1.39505 2.19304C2.28828 1.28893 3.49977 0.781006 4.76299 0.781006C6.02622 0.781006 7.2377 1.28893 8.13094 2.19304C9.02417 3.09715 9.52598 4.32339 9.52598 5.602" fill="white"/>
<path d="M83.9986 12.6947H78.899L75.7679 21.0256H80.7552L83.9986 12.6947ZM69.1282 12.6947H45.8232L64.8752 62.4428L76.5532 32.0613L69.1282 12.6947Z" fill="#FF3333"/>
<path d="M0.408203 83.4915V82.9237H81.5422V83.4915H0.408203Z" fill="white"/>
</g>
<defs>
<clipPath id="clip0_410_8304">
<rect width="84" height="82.5763" fill="white" transform="translate(0 0.915527)"/>
</clipPath>
</defs>
</svg>
