<svg width="57" height="65" viewBox="0 0 57 65" fill="none" xmlns="http://www.w3.org/2000/svg">
<path d="M22 0C22.5304 0 23.0391 0.210714 23.4142 0.585787C23.7893 0.96086 24 1.46957 24 2V10C24 10.5304 23.7893 11.0391 23.4142 11.4142C23.0391 11.7893 22.5304 12 22 12C21.4696 12 20.9609 11.7893 20.5858 11.4142C20.2107 11.0391 20 10.5304 20 10V2C20 1.46957 20.2107 0.96086 20.5858 0.585787C20.9609 0.210714 21.4696 0 22 0ZM6.44 6.44C6.62578 6.25375 6.84648 6.10598 7.08946 6.00515C7.33245 5.90432 7.59293 5.85242 7.856 5.85242C8.11907 5.85242 8.37955 5.90432 8.62253 6.00515C8.86551 6.10598 9.08622 6.25375 9.272 6.44L14.928 12.1C15.119 12.2845 15.2714 12.5052 15.3762 12.7492C15.481 12.9932 15.5362 13.2556 15.5385 13.5212C15.5408 13.7868 15.4902 14.0501 15.3896 14.2959C15.2891 14.5417 15.1406 14.765 14.9528 14.9528C14.765 15.1406 14.5417 15.2891 14.2959 15.3896C14.0501 15.4902 13.7868 15.5408 13.5212 15.5385C13.2556 15.5362 12.9932 15.481 12.7492 15.3762C12.5052 15.2714 12.2845 15.119 12.1 14.928L6.444 9.272C6.06906 8.89694 5.85843 8.38833 5.85843 7.858C5.85843 7.32767 6.06906 6.81906 6.444 6.444L6.44 6.44ZM37.56 6.44C37.7463 6.62578 37.894 6.84648 37.9948 7.08947C38.0957 7.33245 38.1476 7.59293 38.1476 7.856C38.1476 8.11907 38.0957 8.37955 37.9948 8.62253C37.894 8.86551 37.7463 9.08622 37.56 9.272L31.896 14.928C31.7115 15.119 31.4908 15.2714 31.2468 15.3762C31.0028 15.481 30.7404 15.5362 30.4748 15.5385C30.2092 15.5408 29.9459 15.4902 29.7001 15.3896C29.4543 15.2891 29.231 15.1406 29.0432 14.9528C28.8554 14.765 28.7069 14.5417 28.6064 14.2959C28.5058 14.0501 28.4552 13.7868 28.4575 13.5212C28.4598 13.2556 28.515 12.9932 28.6198 12.7492C28.7246 12.5052 28.877 12.2845 29.068 12.1L34.724 6.444C35.0991 6.06906 35.6077 5.85843 36.138 5.85843C36.6683 5.85843 37.1769 6.06906 37.552 6.444L37.56 6.44ZM0 22C0 21.4696 0.210714 20.9609 0.585787 20.5858C0.96086 20.2107 1.46957 20 2 20H10C10.5304 20 11.0391 20.2107 11.4142 20.5858C11.7893 20.9609 12 21.4696 12 22C12 22.5304 11.7893 23.0391 11.4142 23.4142C11.0391 23.7893 10.5304 24 10 24H2C1.46957 24 0.96086 23.7893 0.585787 23.4142C0.210714 23.0391 0 22.5304 0 22ZM26.56 21.2C25.9763 20.7138 25.2661 20.4039 24.5127 20.3065C23.7592 20.2091 22.9936 20.3283 22.3054 20.6502C21.6173 20.972 21.035 21.4832 20.6267 22.1239C20.2184 22.7646 20.001 23.5083 20 24.268V60.672C20 64.368 24.58 66.088 27.012 63.308L35.116 54.044C35.6797 53.4012 36.3742 52.8863 37.153 52.5338C37.9319 52.1813 38.7771 51.9993 39.632 52H52.476C56.216 52 57.912 47.32 55.036 44.928L26.56 21.196V21.2ZM24 60.68V24.268L52.476 48H39.632C38.2062 47.9998 36.7969 48.3045 35.4985 48.8937C34.2001 49.4828 33.0427 50.3428 32.104 51.416L24 60.68Z" fill="#909090"/>
</svg>
